<svg id="logo" class="icon" viewBox="0 0 1024 1024" version="1.1" xmlns="http://www.w3.org/2000/svg" width="200"
     height="200">
    <path d="M1022.588147 511.294073c0-282.916054-228.378019-511.294073-511.294074-511.294073S0 228.378019 0 511.294073s228.378019 511.294073 511.294073 511.294074c20.451763 0 44.312153-3.408627 64.763916-3.408628 34.086272 3.408627 74.989797 6.817254 115.893324 3.408628 132.936459-3.408627 228.378019-34.086272 286.324681-57.946662-37.494899-6.817254-92.032933-20.451763-153.388222-47.72078C944.189722 821.479144 1022.588147 674.908177 1022.588147 511.294073zM255.647037 426.078394c0-37.494899 30.677644-68.172543 68.172543-68.172543s68.172543 30.677644 68.172543 68.172543-30.677644 68.172543-68.172543 68.172544-68.172543-30.677644-68.172543-68.172544zM756.715229 681.725431c-44.312153 85.215679-129.527832 136.345086-228.37802 136.345086-95.44156 0-180.657239-51.129407-224.969392-136.345086-3.408627-6.817254 0-17.043136 6.817254-23.86039 6.817254-3.408627 17.043136 0 23.86039 6.817254 37.494899 71.58117 112.484696 119.30195 197.700375 119.301951 81.807052 0 156.796849-44.312153 197.700375-119.301951 3.408627-6.817254 13.634509-10.225881 23.86039-6.817254 3.408627 3.408627 6.817254 13.634509 3.408628 23.86039zM715.811703 494.250938c-37.494899 0-68.172543-30.677644-68.172543-68.172544s30.677644-68.172543 68.172543-68.172543 68.172543 30.677644 68.172543 68.172543-30.677644 68.172543-68.172543 68.172544z"
          fill="#DADFE5"/>
</svg>